<svg width="12" height="12" viewBox="0 0 12 12" fill="none" xmlns="http://www.w3.org/2000/svg">
<path d="M4.08333 6.125H4.66667V4.95833H5.25C5.41528 4.95833 5.55382 4.90243 5.66563 4.79063C5.77743 4.67882 5.83333 4.54028 5.83333 4.375V3.79167C5.83333 3.62639 5.77743 3.48785 5.66563 3.37604C5.55382 3.26424 5.41528 3.20833 5.25 3.20833H4.08333V6.125ZM4.66667 4.375V3.79167H5.25V4.375H4.66667ZM6.41667 6.125H7.58333C7.74861 6.125 7.88715 6.0691 7.99896 5.95729C8.11076 5.84549 8.16667 5.70694 8.16667 5.54167V3.79167C8.16667 3.62639 8.11076 3.48785 7.99896 3.37604C7.88715 3.26424 7.74861 3.20833 7.58333 3.20833H6.41667V6.125ZM7 5.54167V3.79167H7.58333V5.54167H7ZM8.75 6.125H9.33333V4.95833H9.91667V4.375H9.33333V3.79167H9.91667V3.20833H8.75V6.125ZM3.5 9.33333C3.17917 9.33333 2.90451 9.2191 2.67604 8.99063C2.44757 8.76215 2.33333 8.4875 2.33333 8.16667V1.16667C2.33333 0.845833 2.44757 0.571181 2.67604 0.342708C2.90451 0.114236 3.17917 0 3.5 0H10.5C10.8208 0 11.0955 0.114236 11.324 0.342708C11.5524 0.571181 11.6667 0.845833 11.6667 1.16667V8.16667C11.6667 8.4875 11.5524 8.76215 11.324 8.99063C11.0955 9.2191 10.8208 9.33333 10.5 9.33333H3.5ZM3.5 8.16667H10.5V1.16667H3.5V8.16667ZM1.16667 11.6667C0.845833 11.6667 0.571181 11.5524 0.342708 11.324C0.114236 11.0955 0 10.8208 0 10.5V2.33333H1.16667V10.5H9.33333V11.6667H1.16667ZM3.5 1.16667V8.16667V1.16667Z" fill="white"/>
</svg>
