<svg width="10" height="12" viewBox="0 0 10 12" fill="none" xmlns="http://www.w3.org/2000/svg">
<path d="M5.25 11.6667L5.10417 9.91667H4.95833C3.57778 9.91667 2.40625 9.43542 1.44375 8.47292C0.48125 7.51042 0 6.33889 0 4.95833C0 3.57778 0.48125 2.40625 1.44375 1.44375C2.40625 0.48125 3.57778 0 4.95833 0C5.64861 0 6.29271 0.128819 6.89062 0.386458C7.48854 0.644097 8.01354 0.998958 8.46562 1.45104C8.91771 1.90313 9.27257 2.42813 9.53021 3.02604C9.78785 3.62396 9.91667 4.26806 9.91667 4.95833C9.91667 5.6875 9.79757 6.3875 9.55937 7.05833C9.32118 7.72917 8.99549 8.35139 8.58229 8.925C8.1691 9.49861 7.67812 10.0188 7.10938 10.4854C6.54063 10.9521 5.92083 11.3458 5.25 11.6667ZM6.41667 9.5375C7.10694 8.95417 7.6684 8.27118 8.10104 7.48854C8.53368 6.7059 8.75 5.8625 8.75 4.95833C8.75 3.89861 8.38299 3.00174 7.64896 2.26771C6.91493 1.53368 6.01806 1.16667 4.95833 1.16667C3.89861 1.16667 3.00174 1.53368 2.26771 2.26771C1.53368 3.00174 1.16667 3.89861 1.16667 4.95833C1.16667 6.01806 1.53368 6.91493 2.26771 7.64896C3.00174 8.38299 3.89861 8.75 4.95833 8.75H6.41667V9.5375ZM4.94375 8.15208C5.10903 8.15208 5.25 8.09375 5.36667 7.97708C5.48333 7.86042 5.54167 7.71944 5.54167 7.55417C5.54167 7.38889 5.48333 7.24792 5.36667 7.13125C5.25 7.01458 5.10903 6.95625 4.94375 6.95625C4.77847 6.95625 4.6375 7.01458 4.52083 7.13125C4.40417 7.24792 4.34583 7.38889 4.34583 7.55417C4.34583 7.71944 4.40417 7.86042 4.52083 7.97708C4.6375 8.09375 4.77847 8.15208 4.94375 8.15208ZM4.52083 6.3H5.39583C5.39583 6.00833 5.425 5.80417 5.48333 5.6875C5.54167 5.57083 5.72639 5.35694 6.0375 5.04583C6.2125 4.87083 6.35833 4.68125 6.475 4.47708C6.59167 4.27292 6.65 4.05417 6.65 3.82083C6.65 3.325 6.48229 2.95312 6.14687 2.70521C5.81146 2.45729 5.41528 2.33333 4.95833 2.33333C4.53056 2.33333 4.17083 2.45243 3.87917 2.69062C3.5875 2.92882 3.38333 3.21806 3.26667 3.55833L4.08333 3.87917C4.13194 3.71389 4.22431 3.55104 4.36042 3.39062C4.49653 3.23021 4.69583 3.15 4.95833 3.15C5.22083 3.15 5.41771 3.22292 5.54896 3.36875C5.68021 3.51458 5.74583 3.675 5.74583 3.85C5.74583 4.01528 5.69722 4.16354 5.6 4.29479C5.50278 4.42604 5.38611 4.55972 5.25 4.69583C4.90972 4.9875 4.70312 5.2184 4.63021 5.38854C4.55729 5.55868 4.52083 5.8625 4.52083 6.3Z" fill="#475569"/>
</svg>
