<svg width="102" height="70" viewBox="0 0 102 70" fill="none" xmlns="http://www.w3.org/2000/svg">
<path d="M90.6667 53.3333V37.3333H74.6667V26.6667H90.6667V10.6667H101.333V26.6667H117.333V37.3333H101.333V53.3333H90.6667ZM42.6667 42.6667C36.8 42.6667 31.7778 40.5778 27.6 36.4C23.4222 32.2222 21.3333 27.2 21.3333 21.3333C21.3333 15.4667 23.4222 10.4444 27.6 6.26667C31.7778 2.08889 36.8 0 42.6667 0C48.5333 0 53.5556 2.08889 57.7333 6.26667C61.9111 10.4444 64 15.4667 64 21.3333C64 27.2 61.9111 32.2222 57.7333 36.4C53.5556 40.5778 48.5333 42.6667 42.6667 42.6667ZM0 85.3333V70.4C0 67.3778 0.777778 64.6 2.33333 62.0667C3.88889 59.5333 5.95556 57.6 8.53333 56.2667C14.0444 53.5111 19.6444 51.4444 25.3333 50.0667C31.0222 48.6889 36.8 48 42.6667 48C48.5333 48 54.3111 48.6889 60 50.0667C65.6889 51.4444 71.2889 53.5111 76.8 56.2667C79.3778 57.6 81.4444 59.5333 83 62.0667C84.5556 64.6 85.3333 67.3778 85.3333 70.4V85.3333H0ZM10.6667 74.6667H74.6667V70.4C74.6667 69.4222 74.4222 68.5333 73.9333 67.7333C73.4444 66.9333 72.8 66.3111 72 65.8667C67.2 63.4667 62.3556 61.6667 57.4667 60.4667C52.5778 59.2667 47.6444 58.6667 42.6667 58.6667C37.6889 58.6667 32.7556 59.2667 27.8667 60.4667C22.9778 61.6667 18.1333 63.4667 13.3333 65.8667C12.5333 66.3111 11.8889 66.9333 11.4 67.7333C10.9111 68.5333 10.6667 69.4222 10.6667 70.4V74.6667ZM42.6667 32C45.6 32 48.1111 30.9556 50.2 28.8667C52.2889 26.7778 53.3333 24.2667 53.3333 21.3333C53.3333 18.4 52.2889 15.8889 50.2 13.8C48.1111 11.7111 45.6 10.6667 42.6667 10.6667C39.7333 10.6667 37.2222 11.7111 35.1333 13.8C33.0444 15.8889 32 18.4 32 21.3333C32 24.2667 33.0444 26.7778 35.1333 28.8667C37.2222 30.9556 39.7333 32 42.6667 32Z" fill="white" fill-opacity="0.1"/>
</svg>
