<svg width="12" height="15" viewBox="0 0 12 15" fill="none" xmlns="http://www.w3.org/2000/svg">
<path d="M5.21252 10.1625L9.45002 5.925L8.38127 4.85625L5.21252 8.025L3.63752 6.45L2.56877 7.51875L5.21252 10.1625V10.1625M6.00002 15C4.26252 14.5625 2.82814 13.5656 1.69689 12.0094C0.56564 10.4531 1.52588e-05 8.725 1.52588e-05 6.825V2.25L6.00002 0L12 2.25V6.825C12 8.725 11.4344 10.4531 10.3031 12.0094C9.17189 13.5656 7.73752 14.5625 6.00002 15V15M6.00002 13.425C7.30002 13.0125 8.37502 12.1875 9.22502 10.95C10.075 9.7125 10.5 8.3375 10.5 6.825V3.28125L6.00002 1.59375L1.50002 3.28125V6.825C1.50002 8.3375 1.92502 9.7125 2.77502 10.95C3.62502 12.1875 4.70002 13.0125 6.00002 13.425V13.425M6.00002 7.5V7.5V7.5V7.5V7.5V7.5V7.5V7.5V7.5V7.5" fill="#004CCA"/>
</svg>
